<svg version="1.1" xmlns="http://www.w3.org/2000/svg" xmlns:xlink="http://www.w3.org/1999/xlink" width="206.4626" height="80.60399" viewBox="0,0,206.4626,80.60399"><g transform="translate(-134.88194,-100.70067)"><g stroke-miterlimit="10"><path d="M152.35623,162.5v-55h175.28753v55z" fill="#bb00ff" stroke="#487cb5" stroke-width="10" stroke-linecap="butt"/><text transform="translate(165.8316,143.79202) scale(0.69582,0.69582)" font-size="40" xml:space="preserve" fill="#000000" stroke="none" stroke-width="1" stroke-linecap="butt" font-family="Pixel" font-weight="normal" text-anchor="start"><tspan x="0" dy="0">TEST</tspan></text><path d="M136.63198,163.24962c0,-11.65577 0,-50.78477 0,-57.37575c0,-1.84404 1.81964,-3.4232 4.34084,-3.4232c15.49499,0 166.79751,0 194.33337,0c2.77075,0 4.28835,1.46455 4.28835,3.19996c0,6.35237 0,44.9178 0,57.15248c0,2.34343 -1.93153,3.72085 -4.58461,3.72085c-15.84356,0 -166.41684,0 -194.03714,0c-2.80402,0 -4.34085,-1.20362 -4.34085,-3.27437z" fill="#b5ddf6" stroke="#6ba4c1" stroke-width="3.5" stroke-linecap="butt"/><text transform="translate(194.49976,124.43529) scale(0.50829,0.50829)" font-size="40" xml:space="preserve" fill="#ffffff" stroke="none" stroke-width="1" stroke-linecap="butt" font-family="Sans Serif" font-weight="normal" text-anchor="start"><tspan x="0" dy="0">Gatito Feliz</tspan></text><text transform="translate(195.81811,137.15409) scale(0.23656,0.23656)" font-size="40" xml:space="preserve" fill="#ffffff" stroke="none" stroke-width="1" stroke-linecap="butt" font-family="Sans Serif" font-weight="normal" text-anchor="start"><tspan x="0" dy="0">Aumenta los Gatetos por </tspan><tspan x="0" dy="48px">segundo en 15.000</tspan></text><path d="M176.63995,178.27657c0,-4.54967 0,-19.82312 0,-22.3958c0,-0.7198 1.1798,-1.3362 2.81446,-1.3362c10.04644,0 108.1459,0 125.99924,0c1.79647,0 2.78042,0.57166 2.78042,1.24905c0,2.47956 0,17.53302 0,22.30866c0,0.91474 -1.25234,1.45238 -2.97249,1.45238c-10.27244,0 -107.89909,0 -125.80715,0c-1.81803,0 -2.81446,-0.46982 -2.81446,-1.2781z" fill="#b5ddf6" stroke="#6ba4c1" stroke-width="3.5" stroke-linecap="butt"/><text transform="translate(227.30058,171.93174) scale(0.40996,0.40996)" font-size="40" xml:space="preserve" fill="#ffffff" stroke="none" stroke-width="1" stroke-linecap="butt" font-family="Sans Serif" font-weight="normal" text-anchor="start"><tspan x="0" dy="0">2M</tspan></text><g><g stroke-width="0" stroke-linecap="butt"><path d="M146.94335,148.30775c-0.66312,3.66721 -0.20274,6.56647 -2.96628,6.70053c-3.56901,0.17314 -1.92066,-5.82477 -0.05447,-9.72765c1.88593,-3.94415 5.19135,-4.17817 5.34231,-2.96263c0.37572,3.02533 -1.62541,2.13985 -2.32156,5.98975z" fill="#f9a41f" stroke="#4b4b4b"/><path d="M143.38726,149.55044c1.40137,-0.43697 2.89164,0.34483 3.32861,1.7462c0.43698,1.40137 -0.34482,2.89164 -1.74619,3.32861c-1.40137,0.43698 -2.89165,-0.34483 -3.32861,-1.74619c-0.43698,-1.40137 0.34483,-2.89165 1.74619,-3.32861z" fill="#ffffff" stroke="none"/></g><path d="M184.12244,123.51745c1.17487,-1.17185 2.85826,-1.38897 3.75996,-0.48496c0.9017,0.90402 0.65129,2.55893 -0.4946,3.7587c-2.58358,2.70501 -2.85826,1.38897 -3.75996,0.48495c-0.9017,-0.90402 -2.07118,-1.1995 0.49461,-3.75869z" fill="#e89105" stroke="#4b4b4b" stroke-width="0" stroke-linecap="butt"/><path d="M172.29028,148.45871c0.57663,1.55597 0.0735,3.17703 -1.12376,3.62073c-1.19726,0.4437 -2.59786,-0.4727 -3.21193,-2.01394c-1.38448,-3.47493 -0.07351,-3.17703 1.12375,-3.62073c1.19726,-0.4437 1.95263,-1.38413 3.21193,2.01394z" fill="#e89105" stroke="#4b4b4b" stroke-width="0" stroke-linecap="butt"/><path d="M160.45907,123.32606c-0.14979,-1.3526 -3.40303,-3.88768 -2.77206,-5.41356c1.20831,-0.27912 4.9559,0.03043 6.68253,0.99719c1.56309,-1.89434 3.3037,-3.09747 4.02834,-4.00027c-0.80215,-1.90216 -2.14151,-3.76286 -1.71732,-5.09509c2.65,0.03239 9.68307,2.40331 14.05961,7.01096c4.37655,4.60766 5.10839,9.23435 4.15671,12.65839c-1.08286,3.89605 -3.61247,9.03776 -8.54854,13.27257c-2.97522,2.55254 -7.85446,6.28193 -7.85446,6.28193c0,0 1.76442,4.74122 -0.9422,5.63746c-1.90665,1.39355 -4.29511,-2.14363 -4.29511,-2.14363c0,0 -4.26732,1.96595 -9.62513,-2.66938c-5.00976,-3.769 -8.83849,-9.5003 -4.01014,-17.292c4.15085,-4.52033 6.55235,-4.52031 8.02554,-5.55658c1.76436,-1.24109 2.81221,-3.688 2.81221,-3.688z" fill="#f9a41f" stroke="#4b4b4b" stroke-width="0" stroke-linecap="butt"/><path d="M177.89615,118.24744c1.64675,1.84513 1.25021,4.88627 -2.65829,8.37456c-3.9085,3.4883 -7.18281,3.59428 -8.82956,1.74917c-1.64676,-1.84512 -1.0424,-4.94266 2.86611,-8.43096c3.9085,-3.4883 6.97498,-3.53789 8.62174,-1.69277z" fill="#ffffff" stroke="none" stroke-width="0" stroke-linecap="butt"/><path d="M168.3563,148.46684c-2.95327,-3.67207 -0.35928,-4.77308 2.65333,-7.46181c3.01262,-2.68873 5.79413,-6.66072 8.65373,-2.71286c0,0 -3.47432,3.89275 -5.82034,5.80757c-2.14384,1.74981 -5.48672,4.3671 -5.48672,4.3671z" fill="#ffffff" stroke="none" stroke-width="0" stroke-linecap="butt"/><path d="M180.60768,113.43906l-1.9073,1.58763" fill="none" stroke="#4b4b4b" stroke-width="2" stroke-linecap="round"/><path d="M181.47972,115.26737l-1.398,0.65624" fill="none" stroke="#4b4b4b" stroke-width="2" stroke-linecap="round"/><path d="M163.59014,128.16389l-2.44097,1.81168" fill="none" stroke="#4b4b4b" stroke-width="2" stroke-linecap="round"/><path d="M163.12031,131.91127l1.63402,-2.26941" fill="none" stroke="#4b4b4b" stroke-width="2" stroke-linecap="round"/><path d="M185.93216,122.18724l0.27075,-0.77094" fill="none" stroke="#4b4b4b" stroke-width="2" stroke-linecap="round"/><path d="M188.07301,121.63994l-0.72393,0.82832" fill="none" stroke="#4b4b4b" stroke-width="2" stroke-linecap="round"/><path d="M188.89103,123.0098l-0.71874,0.50537" fill="none" stroke="#4b4b4b" stroke-width="2" stroke-linecap="round"/><path d="M164.76942,125.08767l-0.00552,-1.89807l1.89846,0.14041" fill="none" stroke="#4b4b4b" stroke-width="2" stroke-linecap="round"/><path d="M172.60012,117.80264l-0.00554,-1.89813l1.89848,0.14047" fill="none" stroke="#4b4b4b" stroke-width="2" stroke-linecap="round"/><g stroke="#4b4b4b"><path d="M189.07505,117.2368c2.03218,-0.70808 1.01273,-0.32324 1.83883,2.04764c0.8261,2.37087 1.75246,2.07773 -0.27971,2.78582c-2.03218,0.70808 -5.02615,0.10165 -5.40691,-0.80439c-0.32585,-0.77536 1.81562,-3.32098 3.84779,-4.02908z" fill="#edb2b2" stroke-width="0" stroke-linecap="butt"/><path d="M176.69671,118.67397c4.68017,-1.63075 9.25809,-0.08485 10.03836,2.25409c0.67094,2.01121 -1.9342,6.30075 -6.61436,7.93149c-4.68017,1.63075 -9.13241,1.42251 -10.33402,-2.02604c-1.2016,-3.44854 2.22985,-6.5288 6.91002,-8.15954z" fill="#fa684b" stroke-width="0" stroke-linecap="butt"/><path d="M173.00528,120.46036c1.58667,-0.83577 2.30007,2.11536 2.9867,4.08595c0.68663,1.9706 2.06606,5.15882 0.27684,5.28025c-3.56533,0.24198 -5.907,-0.98361 -6.59363,-2.95421c-0.68663,-1.9706 -0.17618,-4.56508 3.33009,-6.412z" fill="#edb2b2" stroke-width="0" stroke-linecap="butt"/><path d="M179.6618,114.26475c0.97592,-0.43072 0.73896,3.55623 0.73896,3.55623c0,0 -1.10329,-0.17825 -3.0739,0.50838c-1.9706,0.68663 -3.24795,1.44431 -3.24795,1.44431c0,0 1.69965,-3.79504 5.58288,-5.50892z" fill="#edb2b2" stroke-width="0" stroke-linecap="butt"/><path d="M176.96121,124.45713c0,0 1.47161,-0.20016 3.44221,-0.88679c1.9706,-0.68663 2.72424,-1.51191 2.72424,-1.51191c0,0 2.66326,2.97641 1.63098,3.24541c-4.10745,1.07037 -7.79742,-0.84672 -7.79742,-0.84672z" fill="#edb2b2" stroke-width="0" stroke-linecap="butt"/><g fill="none" stroke-width="1.5" stroke-linecap="round"><path d="M172.92053,122.9881l-1.08978,2.25528"/><path d="M173.50328,124.66064l-2.25534,-1.08976"/></g></g><g><path d="M178.80476,126.87987c1.17487,-1.17185 2.85827,-1.38897 3.75996,-0.48496c0.90169,0.90403 0.65129,2.55893 -0.4946,3.7587c-2.58358,2.70501 -2.85826,1.38897 -3.75996,0.48496c-0.90169,-0.90403 -2.07118,-1.1995 0.49461,-3.75869z" fill="#e89105" stroke="#4b4b4b" stroke-width="0" stroke-linecap="butt"/><path d="M182.08986,129.211c0.59583,1.24077 0.14006,2.69744 -1.01799,3.25355c-1.15806,0.55611 -2.57986,0.00108 -3.17569,-1.23969c-0.59583,-1.24077 -0.14006,-2.69744 1.01799,-3.25355c1.15806,-0.55611 2.57986,-0.00108 3.17569,1.23969z" fill="#f9a41f" stroke="none" stroke-width="0" stroke-linecap="butt"/><path d="M179.73407,125.96486l0.3436,-1.28669" fill="none" stroke="#4b4b4b" stroke-width="2" stroke-linecap="round"/><path d="M181.89032,124.44866l-0.47378,1.34924" fill="none" stroke="#4b4b4b" stroke-width="2" stroke-linecap="round"/><path d="M182.57304,126.20399l0.65622,-0.63563" fill="none" stroke="#4b4b4b" stroke-width="2" stroke-linecap="round"/></g><g stroke="none" stroke-width="0" stroke-linecap="butt"><path d="M168.68124,123.60083c-0.54006,-0.60513 -0.48733,-1.53348 0.1178,-2.07355c0.60513,-0.54006 1.53348,-0.48733 2.07355,0.11779c0.54006,0.60513 0.48733,1.53348 -0.11779,2.07355c-0.60513,0.54006 -1.53348,0.48733 -2.07356,-0.11779z" fill="#4b4b4b"/><path d="M170.75045,121.75409c-0.54006,-0.60513 -0.48732,-1.53347 0.1178,-2.07355c0.60513,-0.54006 1.53348,-0.48733 2.07355,0.11779c0.54006,0.60513 0.48733,1.53348 -0.1178,2.07355c-0.60513,0.54006 -1.53348,0.48733 -2.07355,-0.11779z" fill="#4b4b4b"/><path d="M168.30044,122.74027c-0.48695,-0.5456 -0.43939,-1.38265 0.10622,-1.8696c0.5456,-0.48694 1.38264,-0.43939 1.86959,0.10622c0.48695,0.5456 0.43939,1.38264 -0.10621,1.86959c-0.5456,0.48694 -1.38265,0.43939 -1.86959,-0.10621z" fill="#ffffff"/><path d="M170.1541,121.0859c-0.48695,-0.5456 -0.4394,-1.38265 0.10621,-1.86959c0.5456,-0.48694 1.38265,-0.43939 1.8696,0.10622c0.48695,0.5456 0.43939,1.38264 -0.10622,1.86959c-0.5456,0.48694 -1.38264,0.43939 -1.86959,-0.10621z" fill="#ffffff"/></g></g></g></g></svg>