<svg version="1.1" xmlns="http://www.w3.org/2000/svg" xmlns:xlink="http://www.w3.org/1999/xlink" width="92.501" height="56.172" viewBox="0,0,92.501,56.172"><defs><linearGradient x1="194.5004" y1="180.0002" x2="285.5004" y2="180.0002" gradientUnits="userSpaceOnUse" id="color-1"><stop offset="0.012" stop-color="#a7a9ac"/><stop offset="1" stop-color="#414042"/></linearGradient><linearGradient x1="197.9135" y1="179.9993" x2="282.0864" y2="179.9993" gradientUnits="userSpaceOnUse" id="color-2"><stop offset="0" stop-color="#418ad4"/><stop offset="1" stop-color="#002aa8"/></linearGradient></defs><g transform="translate(-193.7495,-151.914)"><g data-paper-data="{&quot;isPaintingLayer&quot;:true}" fill-rule="nonzero" stroke="#000000" stroke-width="1.5" stroke-linecap="butt" stroke-linejoin="miter" stroke-miterlimit="10" stroke-dasharray="" stroke-dashoffset="0" style="mix-blend-mode: normal"><path d="M285.5005,198.731c0,4.752 -3.854,8.605 -8.605,8.605h-73.792c-4.752,0 -8.604,-3.854 -8.604,-8.605v-37.463c0,-4.752 3.852,-8.604 8.604,-8.604h73.791c4.754,0 8.605,3.852 8.605,8.604v37.463z" fill="url(#color-1)"/><path d="M282.0855,161.268v37.462c0,2.862 -2.327,5.19 -5.191,5.19h-73.791c-2.861,0 -5.19,-2.328 -5.19,-5.19v-37.463c0,-2.862 2.329,-5.19 5.19,-5.19h73.791c2.864,0 5.191,2.329 5.191,5.191z" fill="url(#color-2)"/></g></g></svg>