<svg version="1.1" xmlns="http://www.w3.org/2000/svg" xmlns:xlink="http://www.w3.org/1999/xlink" width="206.4626" height="80.60399" viewBox="0,0,206.4626,80.60399"><g transform="translate(-134.88194,-100.70065)"><g stroke-miterlimit="10"><path d="M152.35623,162.5v-55h175.28753v55z" fill="#bb00ff" stroke="#487cb5" stroke-width="10" stroke-linecap="butt"/><text transform="translate(165.8316,143.792) scale(0.69582,0.69582)" font-size="40" xml:space="preserve" fill="#000000" stroke="none" stroke-width="1" stroke-linecap="butt" font-family="Pixel" font-weight="normal" text-anchor="start"><tspan x="0" dy="0">TEST</tspan></text><path d="M136.63198,163.24961c0,-11.65577 0,-50.78477 0,-57.37575c0,-1.84404 1.81964,-3.4232 4.34084,-3.4232c15.49499,0 166.79751,0 194.33337,0c2.77075,0 4.28835,1.46455 4.28835,3.19996c0,6.35237 0,44.9178 0,57.15248c0,2.34343 -1.93153,3.72085 -4.58461,3.72085c-15.84356,0 -166.41684,0 -194.03714,0c-2.80402,0 -4.34085,-1.20362 -4.34085,-3.27437z" fill="#b5ddf6" stroke="#6ba4c1" stroke-width="3.5" stroke-linecap="butt"/><text transform="translate(194.49976,124.43527) scale(0.50829,0.50829)" font-size="40" xml:space="preserve" fill="#ffffff" stroke="none" stroke-width="1" stroke-linecap="butt" font-family="Sans Serif" font-weight="normal" text-anchor="start"><tspan x="0" dy="0">Gatito</tspan></text><text transform="translate(195.81811,137.15409) scale(0.23656,0.23656)" font-size="40" xml:space="preserve" fill="#ffffff" stroke="none" stroke-width="1" stroke-linecap="butt" font-family="Sans Serif" font-weight="normal" text-anchor="start"><tspan x="0" dy="0">Aumenta los Gatetos por </tspan><tspan x="0" dy="48px">segundo en 1</tspan></text><path d="M176.63995,178.27656c0,-4.54967 0,-19.82312 0,-22.3958c0,-0.7198 1.1798,-1.3362 2.81446,-1.3362c10.04644,0 108.1459,0 125.99924,0c1.79647,0 2.78042,0.57166 2.78042,1.24905c0,2.47956 0,17.53302 0,22.30866c0,0.91474 -1.25234,1.45238 -2.97249,1.45238c-10.27244,0 -107.89909,0 -125.80715,0c-1.81803,0 -2.81446,-0.46982 -2.81446,-1.2781z" fill="#b5ddf6" stroke="#6ba4c1" stroke-width="3.5" stroke-linecap="butt"/><text transform="translate(227.30058,171.93173) scale(0.40996,0.40996)" font-size="40" xml:space="preserve" fill="#ffffff" stroke="none" stroke-width="1" stroke-linecap="butt" font-family="Sans Serif" font-weight="normal" text-anchor="start"><tspan x="0" dy="0">100</tspan></text><path d="M189.61963,128.20852c1.32769,1.05555 1.74556,2.73942 0.93336,3.76102c-0.81221,1.02161 -2.52198,0.96141 -3.87462,-0.06145c-3.04966,-2.30617 -1.74557,-2.73941 -0.93336,-3.76102c0.81221,-1.02161 0.9751,-2.24375 3.87462,0.06145z" fill="#e89105" stroke="#003535" stroke-width="0" stroke-linecap="butt"/><path d="M176.77449,144.55518c1.32769,1.05555 1.74556,2.73942 0.93335,3.76102c-0.81221,1.02161 -2.52198,0.96141 -3.87462,-0.06145c-3.04966,-2.30617 -1.74556,-2.73941 -0.93335,-3.76102c0.81221,-1.02161 0.9751,-2.24375 3.87462,0.06145z" fill="#e89105" stroke="#003535" stroke-width="0" stroke-linecap="butt"/><path d="M147.51897,146.25879c3.92665,0.7574 3.82121,-1.47688 6.56625,-0.00213c1.10292,0.59254 -0.34016,3.65687 -4.79576,3.99878c-4.409,0.33833 -10.73455,-0.30426 -9.25222,-3.64232c1.14779,-2.58471 3.74142,-1.07579 7.48173,-0.35433z" fill="#f9a41f" stroke="#003535" stroke-width="0" stroke-linecap="butt"/><path d="M141.20461,149.62567c-1.17449,-0.93375 -1.36965,-2.64282 -0.43589,-3.81731c0.93375,-1.17449 2.64282,-1.36965 3.81732,-0.43589c1.17449,0.93375 1.36965,2.64282 0.43589,3.81731c-0.93375,1.17449 -2.64282,1.36965 -3.81732,0.43589z" fill="#ffffff" stroke="#003535" stroke-width="0" stroke-linecap="butt"/><path d="M159.77328,123.66247c-0.38541,-1.33657 -2.05321,-4.50863 -1.68215,-6.15512c1.16879,-0.49066 4.12717,-0.00124 6.03409,0.67327c1.24613,-2.17926 2.84936,-3.31779 3.4228,-4.35286c-1.13783,-1.77707 -1.66242,-4.44339 -1.46608,-5.85895c2.67507,-0.42683 9.31891,2.18153 14.52648,6.06423c5.20757,3.88271 9.32968,9.21076 7.68293,12.98108c-1.48539,3.40086 -1.86566,3.86971 -1.86566,3.86971c0,0 3.14041,2.72727 1.34764,4.96542c-1.35875,1.6963 -4.92118,-0.09604 -4.92118,-0.09604c0,0 -1.67151,2.36151 -3.23611,4.25234c-2.55451,3.08713 -6.82301,7.68986 -6.82301,7.68986c0,0 3.44907,2.40311 1.49588,5.09362c-1.67905,1.73436 -5.39699,-0.1709 -5.39699,-0.1709c0,0 -3.8594,2.85866 -10.06022,-0.8818c-5.70003,-2.92811 -11.73468,-8.23762 -8.22178,-16.92368c2.2135,-5.47313 7.58277,-10.20612 9.16337,-11.15017z" fill="#f9a41f" stroke="#003535" stroke-width="0" stroke-linecap="butt"/><path d="M176.9259,115.04831c1.97876,1.57317 2.10656,4.7054 -1.22585,8.89697c-3.33241,4.19157 -6.61239,4.86603 -8.59115,3.29286c-1.97876,-1.57317 -1.907,-4.79825 1.42542,-8.98982c3.33241,-4.19157 6.41282,-4.77318 8.39158,-3.20001z" fill="#ffffff" stroke="#003535" stroke-width="0" stroke-linecap="butt"/><path d="M172.15925,115.88091c-0.64895,-0.51593 -0.75678,-1.46026 -0.24085,-2.10921c0.51593,-0.64895 1.46025,-0.75678 2.1092,-0.24084c0.64895,0.51593 0.75678,1.46025 0.24085,2.1092c-0.51593,0.64895 -1.46026,0.75678 -2.1092,0.24085z" fill="#4b4b4b" stroke="#003535" stroke-width="0" stroke-linecap="butt"/><path d="M164.97284,124.88054c-0.64895,-0.51593 -0.75678,-1.46025 -0.24084,-2.1092c0.51593,-0.64895 1.46025,-0.75678 2.1092,-0.24085c0.64895,0.51593 0.75678,1.46026 0.24085,2.1092c-0.51593,0.64895 -1.46026,0.75678 -2.10921,0.24085z" fill="#4b4b4b" stroke="#003535" stroke-width="0" stroke-linecap="butt"/><g stroke="#003535" stroke-width="0" stroke-linecap="butt"><path d="M168.57147,122.03868c-0.64895,-0.51593 -0.75678,-1.46025 -0.24084,-2.1092c0.51593,-0.64895 1.46025,-0.75678 2.1092,-0.24085c0.64895,0.51593 0.75678,1.46025 0.24085,2.1092c-0.51593,0.64895 -1.46026,0.75678 -2.1092,0.24085z" fill="#4b4b4b"/><path d="M170.33568,119.81961c-0.64895,-0.51593 -0.75677,-1.46025 -0.24084,-2.1092c0.51593,-0.64895 1.46025,-0.75678 2.1092,-0.24085c0.64895,0.51593 0.75678,1.46025 0.24084,2.1092c-0.51593,0.64895 -1.46025,0.75678 -2.1092,0.24085z" fill="#4b4b4b"/><path d="M168.03866,121.23783c-0.58512,-0.46519 -0.68234,-1.31662 -0.21716,-1.90174c0.46519,-0.58512 1.31662,-0.68234 1.90174,-0.21715c0.58512,0.46519 0.68234,1.31662 0.21716,1.90174c-0.46519,0.58512 -1.31662,0.68235 -1.90174,0.21716z" fill="#ffffff"/><path d="M169.61911,119.24991c-0.58512,-0.46519 -0.68235,-1.31662 -0.21716,-1.90174c0.46519,-0.58512 1.31662,-0.68234 1.90174,-0.21716c0.58512,0.46519 0.68234,1.31662 0.21715,1.90174c-0.46519,0.58512 -1.31662,0.68234 -1.90174,0.21716z" fill="#ffffff"/></g><path d="M172.55535,147.14369c-3.61162,-3.18701 -1.62313,-5.06264 0.94545,-8.29345c2.56858,-3.2308 5.13397,-6.78537 8.69906,-3.3043c0,0 -2.84338,3.91166 -4.87465,6.24729c-1.85621,2.13435 -4.76986,5.35046 -4.76986,5.35046z" fill="#ffffff" stroke="#003535" stroke-width="0" stroke-linecap="butt"/><path d="M177.17756,111.66447l0.88814,-2.16106" fill="none" stroke="#4b4b4b" stroke-width="2" stroke-linecap="round"/><path d="M179.50947,111.10396l-0.78491,1.22454" fill="none" stroke="#4b4b4b" stroke-width="2" stroke-linecap="round"/><path d="M164.23411,127.51791l-2.7487,1.51183" fill="none" stroke="#4b4b4b" stroke-width="2" stroke-linecap="round"/><path d="M165.66309,128.8049l-2.09616,2.25697" fill="none" stroke="#4b4b4b" stroke-width="2" stroke-linecap="round"/></g></g></svg>